MOTORING: F1: Bahrain Grand Prix - Sunday 21st April 2013

Run Time: 2 hours and 5 minutes long [624x336 Resolution]

CREDIT : HANNIBAL [recorded via PDTV]


ONLY THE RACE. PRE/POST EXTENDED SHOWS NOT INCLUDED.
 
All the action from the main race of the Bahrain Formula 1 Grand Prix from the Bahrain International Circuit. Presented by David Coulthard and his team.

Technical Infromation : 

Video

ID                             : 0
Format                         : MPEG-4 Visual
Format profile                 : Advanced Simple@L5
Format settings, BVOP          : 2
Format settings, QPel          : No
Format settings, GMC           : No warppoints
Format settings, Matrix        : Default (H.263)
Muxing mode                    : Packed bitstream
Codec ID                       : XVID
Codec ID/Hint                  : XviD
Duration                       : 2h 3mn
Bit rate                       : 1 150 Kbps
Width                          : 624 pixels
Height                         : 336 pixels
Display aspect ratio           : 1.85:1
Frame rate                     : 25.000 fps
Color space                    : YUV
Chroma subsampling             : 4:2:0
Bit depth                      : 8 bits
Scan type                      : Progressive
Compression mode               : Lossy
Bits/(Pixel*Frame)             : 0.219
Stream size                    : 1 014 MiB (86%)
Writing library                : XviD 1.2.1 (UTC 2008-12-04)

Audio

ID                             : 1
Format                         : MPEG Audio
Format version                 : Version 1
Format profile                 : Layer 3
Mode                           : Joint stereo
Mode extension                 : MS Stereo
Codec ID                       : 55
Codec ID/Hint                  : MP3
Duration                       : 2h 3mn
Bit rate mode                  : Constant
Bit rate                       : 128 Kbps
Channel(s)                     : 2 channels
Sampling rate                  : 48.0 KHz
Compression mode               : Lossy
Stream size                    : 113 MiB (10%)
Alignment                      : Aligned on interleaves


Screens : 
 
http://i.imgur.com/w8ko78i.jpg
 
http://i.imgur.com/n1CjTHZ.jpg
 
http://i.imgur.com/Y3FevtE.jpg


